<svg width="19" height="19" viewBox="0 0 19 19" fill="none" xmlns="http://www.w3.org/2000/svg">
<rect x="0.898987" y="0.234985" width="17.4646" height="18.3838" rx="8.73232" fill="#D4E7E6"/>
<path fill-rule="evenodd" clip-rule="evenodd" d="M18.3636 4.32091C18.3636 5.40457 17.9548 6.44384 17.227 7.2101C16.4992 7.97636 15.512 8.40684 14.4828 8.40684C13.4535 8.40684 12.4664 7.97636 11.7386 7.2101C11.0108 6.44384 10.6019 5.40457 10.6019 4.32091C10.6019 3.23726 11.0108 2.19799 11.7386 1.43173C12.4664 0.665466 13.4535 0.234985 14.4828 0.234985C15.512 0.234985 16.4992 0.665466 17.227 1.43173C17.9548 2.19799 18.3636 3.23726 18.3636 4.32091ZM16.56 4.82399C16.5311 4.95589 16.4537 5.07032 16.3447 5.14214C16.2358 5.21396 16.1042 5.23731 15.9788 5.20705L12.7694 4.43072C12.6439 4.40038 12.5351 4.31882 12.4667 4.20397C12.3984 4.08913 12.3762 3.95041 12.405 3.81834C12.4339 3.68627 12.5113 3.57167 12.6204 3.49973C12.7295 3.4278 12.8613 3.40444 12.9867 3.43478L16.1962 4.21161C16.2583 4.22667 16.3169 4.25445 16.3688 4.29338C16.4207 4.3323 16.4648 4.3816 16.4986 4.43847C16.5323 4.49533 16.5552 4.55865 16.5657 4.6248C16.5762 4.69094 16.5743 4.75863 16.56 4.82399Z" fill="#112D31"/>
<path d="M6.128 1.89046C5.81413 1.108 4.76338 1.02935 4.34182 1.75613L1.04114 7.44221C0.660327 8.09801 1.08577 8.93562 1.82847 8.99129L7.58478 9.42338C8.327 9.47956 8.86741 8.71447 8.5841 8.00863L6.128 1.89046Z" fill="#112D31"/>
<path fill-rule="evenodd" clip-rule="evenodd" d="M15.1548 15.742C15.8545 15.3986 16.396 14.7765 16.6601 14.0128C16.9242 13.249 16.8893 12.4061 16.563 11.6694C16.4015 11.3046 16.1733 10.9769 15.8915 10.705C15.6097 10.4331 15.2798 10.2222 14.9206 10.0846C14.1951 9.80651 13.3945 9.84325 12.6948 10.1867L7.41874 12.7772C7.07231 12.9472 6.76108 13.1875 6.50284 13.4842C6.24459 13.7809 6.04438 14.1282 5.91363 14.5064C5.78288 14.8845 5.72416 15.2861 5.74082 15.6881C5.75747 16.0902 5.84918 16.4848 6.01071 16.8496C6.17223 17.2143 6.40041 17.542 6.68221 17.8139C6.96402 18.0858 7.29393 18.2965 7.65311 18.4342C8.01228 18.5719 8.3937 18.6337 8.77557 18.6161C9.15744 18.5986 9.5323 18.5021 9.87873 18.332L15.1548 15.742ZM12.5148 15.9106L14.7449 14.8161C15.2061 14.5837 15.5615 14.1691 15.734 13.6623C15.9065 13.1556 15.882 12.5976 15.6659 12.1098C15.4498 11.6219 15.0595 11.2435 14.58 11.0569C14.1004 10.8703 13.5702 10.8905 13.1047 11.1132L10.8747 12.2077L12.5143 15.9106H12.5148Z" fill="#112D31"/>
</svg>
